Patient4_TMGait_0pt8_01_right_08_EMG.mot
version=1
nRows=33
nColumns=33
inDegrees=no
endheader
time	1LAddLong	2LGlutMax	3LGlutMed	4LIliopsoas	5LSemiMemb	6LBicFemLong	7LRecFem	8LVastMed	9LVastLat	10LGasMed	11LTibAnt	12lTibPost	13LPeroneusLong	14LSol	15LExtDigLong	16LFlexDigLong	17RAddLong	18RGlutMax	19RGlutMed	20RIliopsoas	21RSemiMemb	22RBicFemLong	23RRecFem	24RVastMed	25RVastLat	26RGasMed	27RTibAnt	28RTibPost	29RPeroneusLong	30RSol	31RExtDigLong	32RFlexDigLong
9.515	0.010223	0.20889	0.0177	0.009918	-0.004425	-0.42145	-0.20706	-0.010834	0.23285	0.039673	-0.026703	0.001678	0.15045	0.036774	0.13565	-0.023651	-0.011139	0.14496	-0.2626	-0.022736	0.24338	0.032654	-0.38406	0.00473	0.039063	0.001526	0.051575	-0.003815	-1.0861	0.12085	0.005798	-0.013275
9.516	0.019836	0.1799	0.065002	0.016022	0.010376	-0.34531	-0.018311	-0.045929	0.13245	0.007172	0.099487	-0.005493	0.2858	0.099487	0.1207	-0.011597	0.002289	0.067291	-0.15747	-0.049438	0.23865	-0.010834	-0.3801	-0.007477	0.0354	0.014038	0.3862	-0.002747	-1.315	0.041351	0.000305	-0.01709
9.517	0.026093	0.088501	0.098572	0.018005	0.054169	0.016785	0.059509	-0.039978	0.029602	-0.042419	0.12711	-0.008545	0.093689	0.15701	0.004425	0.010529	0.019073	0.040741	-0.1387	-0.00412	0.24109	-0.036011	-0.36438	0.000763	0.009308	0.020142	0.27863	-0.002441	0.33218	-0.039673	0.001373	-0.022583
9.518	0.037537	0.054626	0.058746	0.027008	0.096436	0.34134	0.038757	-0.009003	0.10437	-0.044861	0.27695	-0.006714	-0.11414	0.18723	-0.010223	-0.000763	0.001221	0.003052	-0.32501	-0.046387	0.23377	-0.048523	-0.36102	-0.023193	-0.028839	0.004425	0.30792	0.001831	1.3626	-0.040894	-0.000916	-0.021973
9.519	0.042877	0.094147	0.071259	-0.002441	0.10162	0.29953	-0.035095	0.002136	0.083313	-0.035858	0.12863	-0.004425	-0.014038	0.21835	-0.05249	0.000458	-0.0177	0.002899	-0.44754	-0.064392	0.21454	-0.070038	-0.33096	-0.07843	-0.054321	0.005493	0.36758	-0.000763	0.55084	0.072632	-0.000305	-0.021667
9.52	0.043488	0.070343	0.055389	-0.015106	0.13123	0.074005	-0.054169	0.007782	-0.015259	-0.031433	-0.11917	-0.003815	0.12222	0.14389	-0.034637	0.003662	0.004425	0.076447	-0.30228	-0.060883	0.21118	-0.083618	-0.28091	-0.1268	-0.048981	0.011292	-0.050354	-0.005493	0.25482	0.1033	-0.002899	-0.029907
9.521	0.038605	0.077667	0.003052	-0.012817	0.15045	-0.002136	-0.019073	0.001831	-0.080109	-0.010376	0.048981	-0.008545	0.14328	0.032806	0.043335	0.002594	0.011597	0.080261	-0.27298	-0.019379	0.19486	-0.10803	-0.22568	-0.11993	-0.059967	0.020294	-0.3244	0.002441	0.08255	0.13199	-0.000916	-0.034027
9.522	0.02594	0.05722	-0.007172	-0.026855	0.058289	0.028229	-0.052795	-0.012817	-0.12848	-0.00412	0.10986	-0.01236	0.20706	0.078125	-0.20584	-0.003815	-0.006714	0.082092	-0.19211	0.042419	0.17777	-0.11658	-0.19974	-0.16235	-0.054626	0.023804	-0.075836	-0.00885	-0.041656	0.103	-0.004883	-0.027466
9.523	0.029755	0.05127	-0.063782	-0.013428	-0.004578	-0.16144	-0.16419	-0.022583	-0.18951	0.019989	0.12268	-0.021057	0.26474	0.11719	-0.22492	-0.005035	-0.019836	0.007172	-0.23651	-0.023346	0.1799	-0.10269	-0.18829	-0.13534	-0.055695	0.023346	0.097809	-0.010376	0.064087	-0.028992	-0.002594	-0.023956
9.524	0.015411	0.005951	-0.10117	0.016479	0.02182	-0.34637	-0.1294	-0.021973	-0.22598	0.036621	0.060272	-0.009003	0.28793	0.10986	-0.26154	0.003052	0.005341	-0.055695	-0.19043	-0.028839	0.18143	-0.10407	-0.18494	-0.16632	-0.042419	0.014038	0.15381	-0.014801	-0.19302	-0.10834	-0.00351	-0.021515
9.525	0.001984	-0.021515	-0.13916	0.029602	0.037384	-0.10284	-0.080566	-0.027924	-0.18097	0.025787	-0.23575	-0.006409	-0.057373	0.085297	0.3183	0.007172	0.019379	-0.075836	-0.26352	0.013123	0.1741	-0.088196	-0.17716	-0.13962	-0.014191	-0.002289	0.09964	-0.019226	-0.6662	-0.1976	-0.00824	-0.027313
9.526	-0.011292	-0.004578	-0.064087	0.033264	0.016785	0.073853	-0.038605	-0.034637	-0.049438	-0.019531	-0.14175	-0.007629	-0.18417	0.13809	0.11353	0.007019	0.047455	-0.019989	-0.11444	0.14938	0.19821	-0.079193	-0.17975	-0.14114	-0.019379	-0.015869	-0.027618	-0.036469	-1.2479	-0.12421	-0.001831	-0.031891
9.527	-0.016785	0.027466	0.064697	0.018616	0.071869	0.27115	0.055847	0.004578	0.048523	-0.02182	-0.1355	0.001221	-0.22964	0.14923	-0.37506	-0.000153	0.057678	-0.03479	-0.20279	0.16541	0.1915	-0.082855	-0.23453	-0.05661	-0.008392	-0.016479	-0.14328	-0.014648	0.003967	-0.10605	-0.001373	-0.018921
9.528	-0.029297	-0.049896	0.31418	0.013123	0.099182	0.24155	-0.000763	0.036469	0.19379	-0.024414	-0.098572	-0.001678	-0.05249	0.15869	-0.52155	0.005188	0.045624	-0.037079	-0.17502	0.078735	0.18051	-0.046844	-0.24292	-0.011902	0.008698	-0.016632	-0.068817	0.009308	0.93948	-0.030212	-0.004883	-0.018768
9.529	-0.035248	-0.15518	0.22095	0.038605	-0.002594	-0.007477	-0.097656	0.037842	0.25009	-0.029297	-0.066833	-0.002747	0.065613	0.001984	-0.51971	-0.013275	0.028687	0.012817	-0.20554	0.018921	0.14496	-0.059967	-0.28046	-0.026703	0.014343	-0.037994	0.03891	0.021515	0.91782	-0.13611	-0.000458	-0.018768
9.53	-0.014496	-0.20187	0.14801	0.019684	-0.09613	-0.31006	-0.12955	0.022888	0.27939	-0.01236	0.022125	-0.007172	0.094147	-0.15564	-0.34027	-0.005493	0.014038	0.004425	-0.30411	-0.008087	0.13184	-0.080719	-0.28809	0.002747	0.037079	-0.058289	0.066223	-0.043182	0.33402	-0.4184	0.001678	-0.021973
9.531	0.019836	-0.19608	0.12787	-0.005341	-0.11536	-0.47348	-0.13229	0.005341	0.4155	-0.028992	0.043793	0.001221	-0.067596	-0.19501	-0.32959	0.008545	-0.012817	0.027466	-0.25238	-0.015564	0.12878	-0.06485	-0.28854	-0.005798	0.043182	-0.050507	0.062561	-0.35431	0.003662	-0.22858	0.002441	-0.017548
9.532	0.024109	-0.21423	0.087128	-0.003357	-0.053558	-0.26657	-0.083771	-0.017853	0.35492	-0.012665	-0.083771	0.000305	-0.045013	-0.14572	0.39276	-0.000458	-0.009003	0.049438	-0.26077	-0.010376	0.12634	-0.026245	-0.29419	0.011444	0.046082	-0.033569	0.024261	-0.25314	-0.20355	0.42526	-0.007324	-0.019379
9.533	0.045929	-0.23636	-0.00824	-0.006714	0.025482	-0.077209	-0.18066	-0.023499	0.20187	0.004883	-0.10422	0.002289	0.15106	-0.10498	0.45441	-0.007629	-0.022888	0.056763	-0.18402	-0.067596	0.13977	0.026855	-0.26657	-0.037384	0.063782	-0.016479	-0.003357	0.40192	0.40039	0.63812	-0.001984	-0.019684
9.534	0.047455	-0.29495	-0.12924	0.019684	0.096436	0.11124	-0.23438	-0.02243	-0.069275	0.016022	-0.11292	-0.005341	-0.002594	-0.11856	0.42175	0.00885	-0.092468	0.035706	-0.15503	-0.11246	0.16174	0.095978	-0.22629	-0.010986	0.071716	0.004272	0.018768	0.22797	0.38834	0.15518	-0.002899	-0.027161
9.535	0.030212	-0.33615	-0.13916	0.011749	0.075836	0.25513	-0.041046	-0.028687	-0.46173	-0.018921	-0.1384	0.002136	0.10666	-0.15289	-0.087128	0.005798	-0.10971	0.041046	-0.2002	-0.10056	0.19241	0.10239	-0.20706	-0.033417	0.057373	0.024109	0.012054	0.06546	0.41824	0.084686	-0.002441	-0.018005
9.536	0.009308	-0.32669	-0.001984	-0.000305	0.075531	0.3743	0.15213	0.006866	-0.63171	-0.021362	0.021362	0.006714	-0.18021	-0.13107	-0.059509	0.012665	-0.099487	0.006409	-0.21362	0.024414	0.18921	0.097046	-0.16846	-0.069885	0.056305	0.018921	-0.017395	0.002594	0.55481	0.15503	-0.002136	-0.017548
9.537	-0.003967	-0.38895	-0.10468	0.017853	0.064087	0.46417	0.10346	0.029297	-0.68924	-0.003967	0.13901	0.010223	-0.35477	-0.024261	0.60181	0.014496	-0.043335	-0.061951	-0.18616	0.09964	0.19592	0.1239	-0.19577	-0.042572	0.066223	0.010986	0.00351	0.034027	0.33188	0.03006	0	-0.021362
9.538	-0.021667	-0.36468	-0.13428	-0.004883	-0.025482	0.61996	-0.079956	0.03418	-0.6311	0.008698	0.20294	0.00885	-0.1445	0.060272	0.12131	0.00412	0.016327	-0.13138	-0.1355	0.10727	0.19424	0.11673	-0.1799	-0.062103	0.052795	0.003204	0.019379	0.012512	-0.18127	-0.084381	0.000153	-0.016785
9.539	-0.040741	-0.31906	-0.11704	-0.002136	-0.11475	0.77743	-0.17212	0.02594	-0.53055	0.002289	0.15076	0.005035	0.06897	0.025482	-0.17349	0.010834	0.050507	-0.15945	-0.12222	0.034027	0.20432	0.06073	-0.17914	-0.065002	0.033722	0.001984	0.013733	-0.006866	-0.37643	-0.1593	-0.000305	-0.015869
9.54	-0.063782	-0.3244	0.000153	0.012512	-0.17044	0.63324	-0.16129	0.009308	-0.31616	-0.026703	-0.026703	0.014343	0.012665	-0.009155	0.12726	0.020447	0.09613	-0.21851	-0.12833	0.051422	0.17716	0.044708	-0.16861	-0.034943	0.013885	-0.006409	0.036316	-0.009918	0.1326	-0.21118	-0.002136	-0.016785
9.541	-0.057068	-0.34714	0.048065	0.005188	-0.088043	-0.19043	-0.14084	-0.030365	-0.074615	-0.037231	0.042419	0.012665	-0.047607	-0.025177	0.066681	0.011597	0.1152	-0.26047	-0.12543	0.12665	0.14984	0.025787	-0.21454	-0.041962	0.037384	-0.009308	0.055237	-0.012054	-0.12283	-0.17441	-0.003204	-0.024109
9.542	-0.028992	-0.34546	-0.067902	0.001526	0.069885	-0.49759	-0.096283	-0.06424	0.25146	0.005035	0.12665	0.018921	-0.021515	0.007477	-0.11307	0.013428	0.11978	-0.31693	-0.13931	0.13199	0.10986	0.036926	-0.22354	-0.043488	0.020447	0.021973	0.049133	-0.022125	-0.46478	-0.084839	-0.007935	-0.018768
9.543	-0.006256	-0.27771	-0.10544	0.00061	0.19882	-0.74921	-0.10696	-0.063477	0.36285	0.07309	0.22049	0.017853	0.010986	0.032654	0.092621	0.027771	0.1149	-0.27908	-0.14969	0.083618	0.093842	-0.010834	-0.20813	-0.06546	0.010529	0.014496	0.036621	-0.027161	-0.22659	-0.13351	-0.001984	-0.014801
9.544	0.019836	-0.28671	-0.057526	0.01297	0.14633	-0.65018	0.006561	-0.057373	0.27847	0.045929	0.15305	0.019226	0.21668	0.010834	-0.13489	0.021667	0.09903	-0.21423	-0.12253	0.005493	0.11429	-0.069885	-0.21439	-0.070953	0.012512	0.016937	0.030975	-0.033875	-0.3273	-0.38498	-0.001068	-0.013275
9.545	0.025482	-0.22461	-0.016327	0.013428	0.061035	-0.37811	0.14893	-0.015106	0.074158	0.02182	-0.14893	0.024719	0.27863	-0.028534	-0.33371	0.022888	0.069733	-0.21713	-0.11704	-0.018463	0.13062	-0.054016	-0.18463	-0.053101	-0.021057	0.009613	0.026703	-0.035095	-0.74722	0.045319	-0.008087	-0.010223
9.546	0.019989	-0.22583	0.026093	-0.000458	-0.03479	-0.45334	0.27252	0.013733	-0.033417	-0.006104	-0.15427	0.027161	0.33768	-0.050964	-0.13397	0.020752	0.058136	-0.15518	-0.16159	-0.075226	0.14877	-0.001526	-0.18219	-0.043488	-0.015717	0.018921	0.04776	-0.026855	-0.66009	0.20523	-0.003052	-0.012817
9.547	0.022888	-0.25116	-0.029755	-0.022125	-0.03067	-0.69382	0.24857	0.017242	-0.18539	0.020294	0.093994	0.031586	-0.099335	-0.076599	-0.14923	0.02121	0.053558	-0.1091	-0.12222	-0.05127	0.14923	0.040741	-0.18509	-0.032501	-0.007172	0.025635	0.057983	-0.022888	-0.33157	0.19257	-0.003967	-0.009918
